<svg width="25" height="24" viewBox="0 0 25 24" fill="none" xmlns="http://www.w3.org/2000/svg">
<mask id="mask0_812_2904" style="mask-type:luminance" maskUnits="userSpaceOnUse" x="0" y="0" width="25" height="24">
<path d="M0.97998 0.66748H24.02V23.7075H0.97998V0.66748Z" fill="white"/>
</mask>
<g mask="url(#mask0_812_2904)">
<path d="M19.2199 9.30744L20.4199 6.66744L23.0599 5.46744L20.4199 4.26744L19.2199 1.62744L18.0199 4.26744L15.3799 5.46744L18.0199 6.66744L19.2199 9.30744ZM12.0199 9.78744L9.61994 4.50744L7.21994 9.78744L1.93994 12.1874L7.21994 14.5874L9.61994 19.8674L12.0199 14.5874L17.2999 12.1874L12.0199 9.78744ZM19.2199 15.0674L18.0199 17.7074L15.3799 18.9074L18.0199 20.1074L19.2199 22.7474L20.4199 20.1074L23.0599 18.9074L20.4199 17.7074L19.2199 15.0674Z" fill="#004838"/>
</g>
</svg>
